<?xml version="1.0" encoding="UTF-8"?><svg id="uuid-d8cf7966-c8fe-404e-91c9-9de38df61fe5" xmlns="http://www.w3.org/2000/svg" viewBox="0 0 457 526"><path d="M286.58,276.36s19.39,1.58,28.61-39.65c0,0,2.64-15.53-1.41-19.67s-6.96-5.74-10.35,0-10.42,20.33-10.42,20.33l-6.43,38.99Z" style="fill:none; stroke:#000; stroke-miterlimit:10;"/><path d="M362.4,524.87h-3.67c-1.69-9.88-2.82-79.91-2.82-79.91l36.99,26.54c2.82,16.66-18.92,54.49-18.92,54.49l83.02-1.69s-8.2-30.78-17.52-66.35-16.94-48.28-20.89-52.24-22.87-17.79-41.51-22.31-75.78-35.2-75.78-35.2c-1.43-7.53-19.81-11.82-19.81-11.82l22.84,19.61c-4.99,42.26-84.8,54.31-84.8,54.31l-16.19-1.79c-57.51-5.36-57.22-48.28-57.22-48.28l1.84,26.33s17.79,11.67,21.6,19.34l-1.35-65.73-.96,15.79-.38-10.73s-14.49,8.47-6.78,20.33,24.09,27.48,60.05,27.29,55.15-20.14,64.94-30.31,4.89-12.99,2.45-17.69-4.52-.56-6.02-8.47,0-42.16,0-42.16l10.54-33.79,10.45-13.36v-7.53l-2.73-2.35-3.2,6.68s9.41-21.65,13.18-22.78c0,0,2.07.47,2.45,2.16l-5.93,2.92s3.76.56,3.67,5.08-.56,10.35-2.73,12.71l-.94-30.65.94-4.18.89-.94v-3.58l1.84-3.95v-5.65s1.03-3.2,1.03-4.33v-2.07s1.13,3.95,1.22,1.88,0-9.79,0-9.79c0,0,1.6,3.01,1.6,3.95s1.32-4.89,0-12.42-3.86-17.13-3.86-17.13c0,0,6.86,1.51,6.11,3.2s2.07-15.06-11.1-24.47c0,0-1.42-3.26,2.6-1.35s7.8,3.35,7.69,4.13-4.87-14.48-20.4-16.74v-14.87l-6.4,12.52-1.51-.75s-7.62-27.39-12.05-28.05l1.22,14.87s-18.16-19.01-23.25-19.01c0,0,4.24,6.59,3.67,8.94s-2.07.85-2.07.85c0,0-20.8-17.41-27.48-16.94,0,0,.06,4.14,1.54,7.25l-7.28-.56s-10.82-2.73-23.15.19-12.42,3.76-12.42,3.76c0,0,11.39,1.13,13.84,2.64s-19.01,2.54-19.01,2.54l-5.27-7.15s-4.24,5.36-3.76,12.05c0,0-23.81,6.78-29.18,12.61,0,0,9.88-.38,11.76.28s-6.31,6.31-6.31,6.31l-12.71-1.98,4.33,11.86s-11.29,10.64-12.24,25.88l6.59-5.55s-2.35,22.4-2.16,22.02,1.98-3.01,1.98-3.01c0,0,1.13,37.18,6.78,46.68s8.66,18.73,9.22,22.4l-6.12-.79c-.28.32-6.96,16.23,5.18,23.19l-1.13-13.33c-.09-.72-.85-4.08-1.32-5.58s-5.74-9.79-8-12.61-2.82-.94-3.11-.47l4.61-12.71s-6.12.38-6.96,5.08-2.16,17.13-1.22,20.99,10.35,32.94,16.19,35.39,7.24.65,7.24.65l12.19,28.38s24.28,27.29,35.01,31.44,18.26,4.71,30.49.38,33.32-25.04,38.59-30.12c3.44-3.32,7.04-8.71,9.96-14.42.28-.55.56-1.1.82-1.65,1.22-2.51,2.29-5.05,3.15-7.46,3.01-8.47,7.91-43.86,7.91-43.86,0,0,1.13-33.51,1.51-35.76s-6.96-13.55-6.96-13.55c.94-15.44-1.69-27.29-8.47-36.89s-25.22-4.33-25.22-4.33c3.39-2.45,1.51-4.14,1.51-4.14-5.08,3.2-23.34,5.27-23.34,5.27,8.47-7.53-2.64-3.58-3.49-3.58s-12.7,4.71-12.7,4.71l-15.44-4.14-.38,2.07-12.24-4.33,3.67,4.24c-13.84-4.8-25.69,0-25.69,0-11.86,6.21-13.27,36.14-13.27,36.14l-3.11,13.84.85,42.64,4.66,35.15s.99,3.53,2.26,10.45,8.89,16.94,8.89,16.94l2.19,37.34s.78-.21-2.12.28-12.42,6-17.22,10.52-62.4,34.45-80.47,39.53-31.91,24.56-35.86,31.06-9.88,26.54-9.88,26.54L0,526l57.93-1.13c-10.73-14.96-19.76-57.18-19.76-57.18l35.01-26.68s-3.95,59.86-1.13,71.72l2.82,11.86-1.69.28h289.22Z" style="fill:none; stroke:#000; stroke-miterlimit:10;"/></svg>